# xmcd CD database file
#
# Track frame offsets:
#	150
#	11305
#	23502
#	36484
#	44337
#	57515
#	70262
#	82806
#	97054
#	109041
#	122247
#	136193
#	146042
#	160947
#	175765
#	188990
#	201149
#	214620
#	225829
#	239775
#	252075
#
# Disc length: 3519 seconds
#
# Revision: 2
# Processed by: cddbd v1.5PL3 Copyright (c) Steve Scherf et al.
# Submitted via: CDex 1.50beta8
#
DISCID=200dbd15
DTITLE=Perry Como - To Know You
DYEAR=2002
DGENRE=Jazz
TTITLE0=You Can't Pull The Wool Over My Eyes
TTITLE1=In My Little Red Book
TTITLE2=Mr. Meadowlark
TTITLE3=Faithful Forever
TTITLE4=May I Never Love Again
TTITLE5=Have I Stayed Away Too Long
TTITLE6=I'm Confessing' That I Love You
TTITLE7=If I Loved You
TTITLE8=I'm Gonna Love That Gal
TTITLE9=Did You Ever Get  That Feeling In The Moonlight
TTITLE10=I'm Always Chasing Rainbows
TTITLE11=You Won't Be Satisfied
TTITLE12=Hush Little Darling
TTITLE13=A Dreamer's Holiday
TTITLE14=You're Just In Love (I Wonder Why)
TTITLE15=It's A Lovely Day
TTITLE16=If Wishes Were Kisses
TTITLE17=There's Now Boat Like A Rowboat
TTITLE18=Rollin' Stone
TTITLE19=Noddlin' Rag
TTITLE20=To Know You (Is To Love You)
EXTD=YEAR: 2002
EXTT0=
EXTT1=
EXTT2=
EXTT3=
EXTT4=
EXTT5=
EXTT6=
EXTT7=
EXTT8=
EXTT9=
EXTT10=
EXTT11=
EXTT12=
EXTT13=
EXTT14=
EXTT15=
EXTT16=
EXTT17=
EXTT18=
EXTT19=
EXTT20=
PLAYORDER=
